<svg width="88.89248046875px" height="58.993701171874996px" xmlns="http://www.w3.org/2000/svg" viewBox="205.553759765625 45.503149414062506 88.89248046875 58.993701171874996" style="background: rgba(0, 0, 0, 0);" preserveAspectRatio="xMidYMid"><defs><filter id="editing-hole" x="-100%" y="-100%" width="300%" height="300%"><feFlood flood-color="#000" result="black"></feFlood><feMorphology operator="dilate" radius="2" in="SourceGraphic" result="erode"></feMorphology><feGaussianBlur in="erode" stdDeviation="4" result="blur"></feGaussianBlur><feOffset in="blur" dx="2" dy="2" result="offset"></feOffset><feComposite operator="atop" in="offset" in2="black" result="merge"></feComposite><feComposite operator="in" in="merge" in2="SourceGraphic" result="inner-shadow"></feComposite></filter></defs><g filter="url(#editing-hole)"><g transform="translate(224.03937363624573, 84.18593788146973)"><path d="M14.16-15.38L14.06-4.80L14.11 0L12.22 0L12.31-4.63L12.29-6.94L8.02-6.96L4.10-6.94L4.08-4.80L4.15 0L2.26 0L2.33-4.63L2.26-15.38L4.18-15.38L4.10-8.57L8.18-8.54L12.29-8.57L12.22-15.38L14.16-15.38ZM26.18-1.61L26.33-1.44L26.16 0L18.58 0L18.70-4.63L18.58-15.38L20.54-15.38L20.42-4.80L20.50-1.61L26.18-1.61ZM29.18-2.11L29.18-2.11Q29.66-2.11 29.95-1.82L29.95-1.82L29.95-1.82Q30.24-1.54 30.24-1.03L30.24-1.03L30.24-1.03Q30.24-0.50 29.94-0.19L29.94-0.19L29.94-0.19Q29.64 0.12 29.11 0.12L29.11 0.12L29.11 0.12Q28.61 0.12 28.33-0.17L28.33-0.17L28.33-0.17Q28.06-0.46 28.06-0.98L28.06-0.98L28.06-0.98Q28.06-1.49 28.36-1.80L28.36-1.80L28.36-1.80Q28.66-2.11 29.18-2.11L29.18-2.11ZM37.10-15.38L37.01-5.09L37.06-2.83L37.06-2.83Q37.06-1.01 36.14 0.18L36.14 0.18L36.14 0.18Q35.23 1.37 32.98 2.45L32.98 2.45L32.23 1.37L32.23 1.13L32.23 1.13Q33.89 0.24 34.58-0.62L34.58-0.62L34.58-0.62Q35.28-1.49 35.28-2.81L35.28-2.81L35.28-4.90L35.18-13.82L32.23-13.80L32.04-13.97L32.16-15.38L37.10-15.38ZM45.74-15.50L45.74-15.50Q47.40-15.50 49.18-14.78L49.18-14.78L48.86-12.94L48.53-12.84L48.53-12.84Q47.83-13.37 47.05-13.66L47.05-13.66L47.05-13.66Q46.27-13.94 45.50-13.94L45.50-13.94L45.50-13.94Q44.62-13.94 43.96-13.58L43.96-13.58L43.96-13.58Q43.30-13.22 42.95-12.65L42.95-12.65L42.95-12.65Q42.60-12.07 42.60-11.45L42.60-11.45L42.60-11.45Q42.60-10.80 43.00-10.31L43.00-10.31L43.00-10.31Q43.39-9.82 43.99-9.46L43.99-9.46L43.99-9.46Q44.59-9.10 45.62-8.59L45.62-8.59L45.62-8.59Q46.92-7.99 47.71-7.48L47.71-7.48L47.71-7.48Q48.50-6.96 49.07-6.17L49.07-6.17L49.07-6.17Q49.63-5.38 49.63-4.25L49.63-4.25L49.63-4.25Q49.63-3.05 48.98-2.04L48.98-2.04L48.98-2.04Q48.34-1.03 47.16-0.43L47.16-0.43L47.16-0.43Q45.98 0.17 44.47 0.17L44.47 0.17L44.47 0.17Q43.46 0.17 42.37-0.11L42.37-0.11L42.37-0.11Q41.28-0.38 40.34-0.91L40.34-0.91L40.58-2.88L40.85-3L40.85-3Q41.69-2.18 42.71-1.79L42.71-1.79L42.71-1.79Q43.73-1.39 44.66-1.39L44.66-1.39L44.66-1.39Q45.58-1.39 46.28-1.75L46.28-1.75L46.28-1.75Q46.99-2.11 47.36-2.71L47.36-2.71L47.36-2.71Q47.74-3.31 47.74-3.98L47.74-3.98L47.74-3.98Q47.74-4.99 46.97-5.60L46.97-5.60L46.97-5.60Q46.20-6.22 44.64-6.94L44.64-6.94L44.64-6.94Q43.37-7.56 42.60-8.05L42.60-8.05L42.60-8.05Q41.83-8.54 41.28-9.32L41.28-9.32L41.28-9.32Q40.73-10.10 40.73-11.23L40.73-11.23L40.73-11.23Q40.73-12.41 41.36-13.39L41.36-13.39L41.36-13.39Q42-14.38 43.14-14.94L43.14-14.94L43.14-14.94Q44.28-15.50 45.74-15.50L45.74-15.50Z" fill="#ccc"></path></g></g><style>text {
  font-size: 64px;
  font-family: Arial Black;
  dominant-baseline: central;
  text-anchor: middle;
}</style></svg>